<svg width="25" height="24" viewBox="0 0 25 24" fill="none" xmlns="http://www.w3.org/2000/svg">
<path fill-rule="evenodd" clip-rule="evenodd" d="M12.875 22C18.3979 22 22.875 17.5229 22.875 12C22.875 6.47716 18.3979 2 12.875 2C7.35216 2 2.875 6.47716 2.875 12C2.875 17.5229 7.35216 22 12.875 22ZM10.7321 15.3929C10.239 15.3929 9.83929 15.7926 9.83929 16.2857C9.83929 16.7789 10.239 17.1786 10.7321 17.1786H12.875H15.0179C15.511 17.1786 15.9107 16.7789 15.9107 16.2857C15.9107 15.7926 15.511 15.3929 15.0179 15.3929H13.7679V11.2857C13.7679 10.7926 13.3681 10.3929 12.875 10.3929H11.4464C10.9533 10.3929 10.5536 10.7926 10.5536 11.2857C10.5536 11.7788 10.9533 12.1786 11.4464 12.1786H11.9821V15.3929H10.7321ZM14.3036 7.71429C14.3036 8.50326 13.664 9.14286 12.875 9.14286C12.086 9.14286 11.4464 8.50326 11.4464 7.71429C11.4464 6.92531 12.086 6.28571 12.875 6.28571C13.664 6.28571 14.3036 6.92531 14.3036 7.71429Z" fill="#323232"/>
</svg>
