<svg width="15" height="15" viewBox="0 0 15 15" fill="none" xmlns="http://www.w3.org/2000/svg">
<g clip-path="url(#clip0_1101_3031)">
<path d="M12.5 1H3C2.46957 1 1.96086 1.21071 1.58579 1.58579C1.21071 1.96086 1 2.46957 1 3V14L3.5 12.5L6 14L8.5 12.5L11 14V2.5C11 2.10218 11.158 1.72064 11.4393 1.43934C11.7206 1.15804 12.1022 1 12.5 1ZM12.5 1C12.8978 1 13.2794 1.15804 13.5607 1.43934C13.842 1.72064 14 2.10218 14 2.5V6H11" stroke="white" stroke-linecap="round" stroke-linejoin="round"/>
<path d="M8.5 6.40642C8.5 7.46322 8.29544 8.24302 7.88633 8.74581C7.48187 9.2486 6.82868 9.5 5.92678 9.5C5.53626 9.5 5.08298 9.44181 4.56695 9.32542V7.71229L3.52789 7.94972V7.38408L4.56695 7.14665V6.55307L3.5 6.79749V6.25279L4.56695 6.00838V4.5H5.38285V5.81983L6.5265 5.55447V6.11313L5.38285 6.37151V6.96508L6.49163 6.71369V7.27235L5.38285 7.52374V8.70391C5.53626 8.7365 5.71757 8.75279 5.92678 8.75279C6.55904 8.75279 7.01 8.55493 7.27964 8.15922C7.54928 7.7635 7.6841 7.17924 7.6841 6.40642H8.5Z" fill="white"/>
</g>
<defs>
<clipPath id="clip0_1101_3031">
<rect width="15" height="15" fill="white"/>
</clipPath>
</defs>
</svg>
