<svg width="21" height="20" viewBox="0 0 21 20" fill="none" xmlns="http://www.w3.org/2000/svg">
<path d="M4.00006 13.9725L3.99772 14.1276L4.08364 14.2569C5.46236 16.3303 7.82556 17.7 10.5 17.7C13.1744 17.7 15.5376 16.3303 16.9164 14.2569L17.0023 14.1276L16.9999 13.9725C16.9897 13.2949 16.641 12.7335 16.1712 12.2941C15.7035 11.8565 15.082 11.5058 14.4278 11.2324C13.1213 10.6865 11.5634 10.4 10.5 10.4C9.43174 10.4 7.87379 10.6865 6.56832 11.2325C5.91456 11.5059 5.29399 11.8567 4.82701 12.2944C4.35791 12.734 4.01026 13.2954 4.00006 13.9725ZM1 10C1 4.75614 5.25614 0.5 10.5 0.5C15.7439 0.5 20 4.75614 20 10C20 15.2439 15.7439 19.5 10.5 19.5C5.25614 19.5 1 15.2439 1 10ZM14 6C14 4.06386 12.4361 2.5 10.5 2.5C8.56386 2.5 7 4.06386 7 6C7 7.93614 8.56386 9.5 10.5 9.5C12.4361 9.5 14 7.93614 14 6Z" stroke="#323232"/>
</svg>
